<svg xmlns="http://www.w3.org/2000/svg" viewBox="0 0 987.06 125.93"><g id="Capa_2" data-name="Capa 2"><g id="Capa_1-2" data-name="Capa 1"><path d="M346.93,123.82V2.1c24.07-.19,47.89-4.89,71.6,1.31,12.38,3.23,20.53,11.42,23.9,23.52,6.48,23.23,6.43,46.7.62,70.07-4,16.06-14.79,25.7-31.08,26.92-17.36,1.29-34.87.56-52.32.6C355.69,124.53,351.73,124.1,346.93,123.82ZM374,104.54c9.32,0,18,.49,26.65-.15,6.95-.52,12.34-4.48,14.28-11.46,5.52-19.83,5.79-39.88-.22-59.52-1.34-4.4-6.67-9.69-11-10.65-9.47-2.08-19.51-1.64-29.68-2.25Z"/><path d="M768.77,66.11c1.19-12.28,1.33-21.83,3.16-31C776.38,12.64,786.42,3,809.07.57c10.3-1.12,21-.23,31.34.94,15.8,1.77,26.23,11,30.26,26.21a135.87,135.87,0,0,1-.06,70.9c-4.87,18.2-18.73,26-36.33,27.06a160.13,160.13,0,0,1-32.8-1.66c-14.14-2.07-23.82-10.84-27.24-24.59C771.32,87.69,770.25,75.49,768.77,66.11Zm78.52-3c-1.1-8.74-1.68-17.71-3.46-26.42-2.25-11-9.1-15.6-21.25-15.68-12.73-.09-19.67,4.39-22.11,15.63a125.26,125.26,0,0,0-.08,52.51c2.4,11.48,9.2,16,21.77,16s19.33-4.51,21.72-16C845.64,80.65,846.17,71.93,847.29,63.06Z"/><path d="M142.71,122.71a16.58,16.58,0,0,1-2.68,1.05c-24.32,2.06-24.32,2.06-24.32-21.85V2.31c23.54-2,46.16-4.11,68.73.22,14,2.69,20.9,10,22.92,24a71.38,71.38,0,0,1,.46,17.09c-1.27,12.89-5.9,17.76-21.15,23.44,22.2,12.62,17,37.21,27.33,56.92-10.06,0-18.22.37-26.3-.29-1.76-.14-4-3.78-4.67-6.18-2.8-9.79-4.95-19.77-7.62-29.61-2.48-9.12-5.51-11.43-14.8-11.7-5.7-.16-11.42,0-17.9,0ZM143,20.93V55.59c8.19,0,16.1.2,24-.05,10.16-.33,13.91-4.7,14.27-15.95.39-12.53-2.95-17.74-13.1-18.53C160.24,20.43,152.25,20.93,143,20.93Z"/><path d="M333.91,123.92c-9,0-16.72.27-24.37-.22-1.59-.11-3.71-2.83-4.34-4.75-2.46-7.57-4.21-15.37-6.71-22.92-.59-1.79-3-4.2-4.68-4.24-12.72-.35-25.45-.2-38.6-.2-2.6,9.25-5.26,18-7.52,26.93-1,4-2.86,5.77-7.23,5.55-6.92-.35-13.86-.1-21.85-.1,4.79-15.71,9.21-30.41,13.75-45.07,6.94-22.35,14.14-44.61,20.83-67,2.05-6.88,6-9.92,12.95-9.79,7.25.14,14.62-.69,21.71.39,3.77.58,9.22,3.62,10.22,6.72C310.26,46.79,321.76,84.6,333.91,123.92Zm-42.5-52.8c-4.19-16-8.1-31-12.2-46.06a3.94,3.94,0,0,0-3-2.3,4.29,4.29,0,0,0-2.87,2.66c-4.13,15-8.09,30-12.26,45.7Z"/><path d="M597.58,78.16v45.19H571.06V2.24c23.25-1.93,46.11-4,68.94.46,13.4,2.62,20.38,11.81,21.47,24.52a139.8,139.8,0,0,1-1.21,31.12c-1.6,11.37-9.53,18.6-20.73,19.55C626,79,612.19,78.16,597.58,78.16Zm.4-18.67c7.37,0,14.07.25,20.74-.06,12.73-.58,16.58-4.74,16.66-17.66a65.32,65.32,0,0,0-.69-10.37c-.9-5.83-4.53-9.69-10.38-10-8.61-.5-17.27-.13-26.33-.13Z"/><path d="M550.9,3.79c-.31,6.76-.57,12.41-.88,18.92-14.61,0-28.56,0-42.5,0-11.52,0-13.35,1.84-13.59,13.47-.3,15-.3,15,15,15h33.7V70H494.54c0,9.48-.38,18.11.13,26.68.33,5.79,5.16,6.69,10,6.7,14.75,0,29.5,0,45.34,0,.3,6.25.58,12.08.91,18.73-4.86.56-9.22,1.4-13.61,1.5-15,.34-30,.66-45,.55-15.76-.12-25.15-9.62-25.24-25.34Q466.8,63,467,27.07c.09-15.45,9.27-24.95,24.63-25.11,15.76-.17,31.53.24,47.3.55C542.61,2.58,546.28,3.28,550.9,3.79Z"/><path d="M947.36,123.6H920.45c0-9.09-.41-17.95.11-26.76.55-9.3-1.87-17.46-6.14-25.66C903.7,50.65,893.55,29.82,883.2,9.09c-.87-1.75-1.51-3.62-2.82-6.79,9.15,0,17.49-.29,25.78.25,1.55.1,3.27,3.36,4.23,5.46,8,17.61,15.88,35.3,23.88,53.16a5.25,5.25,0,0,0,1.28-1.53C943,42,950.34,24.3,958,6.75c.87-2,3.68-4.25,5.73-4.4,7.42-.53,14.89-.21,23.31-.21a63.68,63.68,0,0,1-2.17,6.08c-10.93,22.1-22.18,44.06-32.7,66.35a56,56,0,0,0-4.64,19.1C946.79,103.31,947.36,113.05,947.36,123.6Z"/><path d="M0,2.49H99.65V22.93c-9.77,0-19.67.3-29.54-.12-5.68-.23-7.24,1.71-7.19,7.24.25,28.14.12,56.29.12,84.44v9.4c-8.09,0-15.74.32-23.29-.32-1.27-.11-3.09-4.43-3.11-6.82-.25-28.39-.4-56.79-.07-85.18.08-6.71-1.46-9.3-8.62-8.8-9.14.64-18.35.15-27.95.15Z"/><path d="M759.8,124c-20.07,0-39.53.59-58.94-.22-11.46-.47-20.3-9.4-20.46-20.34-.47-33.36-.17-66.72-.17-101.18,8,0,15.72-.33,23.33.32,1.3.11,3.18,4.37,3.2,6.73.23,26.17.14,52.33.15,78.49,0,12.86,1.84,14.69,14.74,14.73,10.52,0,21,.18,31.54-.07,4.78-.11,6.95,1.47,6.66,6.4C759.61,113,759.8,117.22,759.8,124Z"/></g></g></svg>